<svg width="18" height="19" viewBox="0 0 18 19" fill="none" xmlns="http://www.w3.org/2000/svg">
<path d="M4.52988 13.7188C4.56504 13.7188 4.6002 13.7152 4.63535 13.71L7.59199 13.1914C7.62715 13.1844 7.66055 13.1686 7.68516 13.1422L15.1365 5.69082C15.1528 5.67456 15.1657 5.65524 15.1746 5.63398C15.1834 5.61271 15.1879 5.58992 15.1879 5.56689C15.1879 5.54387 15.1834 5.52108 15.1746 5.49981C15.1657 5.47855 15.1528 5.45923 15.1365 5.44297L12.215 2.51973C12.1816 2.48633 12.1377 2.46875 12.0902 2.46875C12.0428 2.46875 11.9988 2.48633 11.9654 2.51973L4.51406 9.97109C4.4877 9.99746 4.47187 10.0291 4.46484 10.0643L3.94629 13.0209C3.92919 13.1151 3.9353 13.212 3.96409 13.3033C3.99288 13.3945 4.04349 13.4774 4.11152 13.5447C4.22754 13.6572 4.37344 13.7188 4.52988 13.7188ZM5.71465 10.6531L12.0902 4.2793L13.3787 5.56777L7.00312 11.9416L5.44043 12.2176L5.71465 10.6531ZM15.4688 15.1953H2.53125C2.22012 15.1953 1.96875 15.4467 1.96875 15.7578V16.3906C1.96875 16.468 2.03203 16.5312 2.10938 16.5312H15.8906C15.968 16.5312 16.0312 16.468 16.0312 16.3906V15.7578C16.0312 15.4467 15.7799 15.1953 15.4688 15.1953Z" fill="#E8E8E8"/>
</svg>
