<svg width="24" height="24" viewBox="0 0 24 24" fill="none" xmlns="http://www.w3.org/2000/svg">
<path d="M18.4687 16.5446V4.50003C18.4687 4.29378 18.3 4.12503 18.0937 4.12503H14.1094V2.51253C14.1094 2.3719 13.9453 2.29221 13.8352 2.37893L10.8445 4.74143C10.8243 4.75707 10.8079 4.77714 10.7966 4.80009C10.7854 4.82305 10.7795 4.84828 10.7795 4.87386C10.7795 4.89943 10.7854 4.92466 10.7966 4.94762C10.8079 4.97057 10.8243 4.99064 10.8445 5.00628L13.8328 7.36878C13.943 7.4555 14.107 7.37815 14.107 7.23518V5.62503H16.7789V16.5446C15.743 16.8961 14.9977 17.8781 14.9977 19.0313C14.9977 20.4797 16.1742 21.6563 17.6227 21.6563C19.0711 21.6563 20.2477 20.4797 20.2477 19.0313C20.25 17.8781 19.5047 16.8985 18.4687 16.5446ZM17.625 20.1563C17.3306 20.1503 17.0503 20.0291 16.8442 19.8188C16.6382 19.6084 16.5227 19.3257 16.5227 19.0313C16.5227 18.7368 16.6382 18.4541 16.8442 18.2438C17.0503 18.0335 17.3306 17.9123 17.625 17.9063C17.9194 17.9123 18.1997 18.0335 18.4058 18.2438C18.6118 18.4541 18.7273 18.7368 18.7273 19.0313C18.7273 19.3257 18.6118 19.6084 18.4058 19.8188C18.1997 20.0291 17.9194 20.1503 17.625 20.1563ZM9 4.96878C9 3.52034 7.82344 2.34378 6.375 2.34378C4.92656 2.34378 3.75 3.52034 3.75 4.96878C3.75 6.1219 4.49531 7.10159 5.53125 7.4555V16.5469C4.49531 16.8985 3.75 17.8805 3.75 19.0336C3.75 20.4821 4.92656 21.6586 6.375 21.6586C7.82344 21.6586 9 20.4821 9 19.0336C9 17.8805 8.25469 16.9008 7.21875 16.5469V7.4555C8.25469 7.10159 9 6.1219 9 4.96878ZM5.25 4.96878C5.25601 4.67438 5.37718 4.39408 5.5875 4.188C5.79782 3.98193 6.08055 3.86651 6.375 3.86651C6.66945 3.86651 6.95218 3.98193 7.1625 4.188C7.37282 4.39408 7.49399 4.67438 7.5 4.96878C7.49399 5.26317 7.37282 5.54348 7.1625 5.74955C6.95218 5.95563 6.66945 6.07105 6.375 6.07105C6.08055 6.07105 5.79782 5.95563 5.5875 5.74955C5.37718 5.54348 5.25601 5.26317 5.25 4.96878ZM7.5 19.0313C7.49399 19.3257 7.37282 19.606 7.1625 19.812C6.95218 20.0181 6.66945 20.1335 6.375 20.1335C6.08055 20.1335 5.79782 20.0181 5.5875 19.812C5.37718 19.606 5.25601 19.3257 5.25 19.0313C5.25601 18.7369 5.37718 18.4566 5.5875 18.2505C5.79782 18.0444 6.08055 17.929 6.375 17.929C6.66945 17.929 6.95218 18.0444 7.1625 18.2505C7.37282 18.4566 7.49399 18.7369 7.5 19.0313Z" fill="#E8E8E8"/>
</svg>
