<svg width="18" height="19" viewBox="0 0 18 19" fill="none" xmlns="http://www.w3.org/2000/svg">
<path fill-rule="evenodd" clip-rule="evenodd" d="M16.3125 1.625C16.1633 1.625 16.0202 1.68426 15.9148 1.78975C15.8093 1.89524 15.75 2.03832 15.75 2.1875V16.8125C15.75 16.9617 15.8093 17.1048 15.9148 17.2102C16.0202 17.3157 16.1633 17.375 16.3125 17.375C16.4617 17.375 16.6048 17.3157 16.7102 17.2102C16.8157 17.1048 16.875 16.9617 16.875 16.8125V2.1875C16.875 2.03832 16.8157 1.89524 16.7102 1.78975C16.6048 1.68426 16.4617 1.625 16.3125 1.625Z" fill="var(--color-main-background)"/>
<path d="M14.625 8.375C14.625 8.07663 14.5065 7.79048 14.2955 7.57951C14.0845 7.36853 13.7984 7.25 13.5 7.25H2.25C1.95163 7.25 1.66548 7.36853 1.4545 7.57951C1.24353 7.79048 1.125 8.07663 1.125 8.375V10.625C1.125 10.9234 1.24353 11.2095 1.4545 11.4205C1.66548 11.6315 1.95163 11.75 2.25 11.75H13.5C13.7984 11.75 14.0845 11.6315 14.2955 11.4205C14.5065 11.2095 14.625 10.9234 14.625 10.625V8.375Z" fill="var(--color-main-background)"/>
</svg>
