<svg width="28" height="28" viewBox="0 0 28 28" fill="none" xmlns="http://www.w3.org/2000/svg">
<g clip-path="url(#clip0_537_1702)">
<path d="M23.0007 6.81202H12.8157L11.0832 4.42702C10.9436 4.23592 10.7607 4.08058 10.5495 3.97369C10.3384 3.8668 10.1049 3.8114 9.86823 3.81202H5.00073C4.60291 3.81202 4.22138 3.97005 3.94007 4.25136C3.65877 4.53266 3.50073 4.91419 3.50073 5.31202V21.812C3.50073 22.2098 3.65877 22.5914 3.94007 22.8727C4.22138 23.154 4.60291 23.312 5.00073 23.312H23.0007C23.3986 23.312 23.7801 23.154 24.0614 22.8727C24.3427 22.5914 24.5007 22.2098 24.5007 21.812V8.31202C24.5007 7.91419 24.3427 7.53266 24.0614 7.25136C23.7801 6.97005 23.3986 6.81202 23.0007 6.81202ZM5.00073 5.31202H9.86823L11.9082 8.31202H5.00073V5.31202ZM16.9557 20.042C16.5413 20.046 16.1421 19.8857 15.8456 19.5962C15.549 19.3067 15.3792 18.9114 15.3732 18.497V18.272L11.1207 16.277L11.0607 16.337C10.8364 16.5482 10.5545 16.6882 10.2506 16.7393C9.94681 16.7905 9.63464 16.7505 9.35349 16.6245C9.07234 16.4984 8.8348 16.292 8.67085 16.0311C8.50689 15.7702 8.42385 15.4667 8.4322 15.1587C8.44056 14.8507 8.53993 14.5521 8.71778 14.3005C8.89563 14.0489 9.14401 13.8556 9.43157 13.745C9.71914 13.6343 10.033 13.6114 10.3336 13.6789C10.6343 13.7465 10.9081 13.9015 11.1207 14.1245L15.3507 12.1295V11.957C15.354 11.5954 15.4829 11.2461 15.7152 10.969C15.9475 10.6919 16.2689 10.5041 16.6244 10.4377C16.98 10.3713 17.3475 10.4306 17.6641 10.6052C17.9808 10.7799 18.2269 11.0592 18.3605 11.3953C18.494 11.7314 18.5066 12.1034 18.3961 12.4478C18.2856 12.7921 18.0589 13.0874 17.7548 13.2831C17.4507 13.4788 17.088 13.5627 16.7288 13.5206C16.3697 13.4784 16.0363 13.3128 15.7857 13.052L11.5632 15.062V15.4145L15.8532 17.4095C16.0341 17.2303 16.2562 17.0982 16.5001 17.025C16.744 16.9519 17.0021 16.9398 17.2517 16.9899C17.5014 17.04 17.7349 17.1507 17.9316 17.3124C18.1284 17.474 18.2824 17.6815 18.38 17.9167C18.4777 18.1518 18.516 18.4074 18.4916 18.6608C18.4672 18.9143 18.3808 19.1578 18.2401 19.37C18.0994 19.5823 17.9086 19.7566 17.6847 19.8777C17.4607 19.9988 17.2104 20.063 16.9557 20.0645V20.042Z" fill="#D6A218"/>
</g>
<defs>
<clipPath id="clip0_537_1702">
<rect width="27" height="27" fill="white" transform="translate(0.5 0.0618896)"/>
</clipPath>
</defs>
</svg>
