<svg width="17" height="17" viewBox="0 0 17 17" fill="none" xmlns="http://www.w3.org/2000/svg">
<path d="M10.9831 13.1796L6.14579 8.14809L11.0522 3.18388C11.1401 3.09519 11.1897 2.97565 11.1906 2.85083C11.1914 2.726 11.1434 2.60579 11.0568 2.5159C11.0148 2.47237 10.9644 2.43767 10.9088 2.41383C10.8532 2.39 10.7933 2.3775 10.7328 2.37709C10.6723 2.37667 10.6122 2.38833 10.5563 2.4114C10.5003 2.43446 10.4495 2.46846 10.4068 2.5114L5.18622 7.79245C5.09457 7.88519 5.04277 8.01007 5.04186 8.14046C5.04096 8.27085 5.09103 8.39643 5.1814 8.49043L10.3275 13.8431C10.3696 13.887 10.4201 13.9219 10.4759 13.9459C10.5317 13.97 10.5918 13.9825 10.6526 13.983C10.7133 13.9834 10.7736 13.9716 10.8297 13.9484C10.8859 13.9251 10.9368 13.8909 10.9795 13.8476C11.0674 13.7589 11.117 13.6394 11.1179 13.5146C11.1187 13.3898 11.0707 13.2695 10.9841 13.1796L10.9831 13.1796Z" fill="#CACACA"/>
</svg>
