<svg width="17" height="17" viewBox="0 0 17 17" fill="none" xmlns="http://www.w3.org/2000/svg">
<path d="M13.3721 5.51491L8.34057 10.3523L3.37635 5.44583C3.28766 5.358 3.16813 5.30834 3.0433 5.30747C2.91848 5.30661 2.79827 5.35461 2.70837 5.44122C2.66484 5.48328 2.63014 5.53361 2.60631 5.58925C2.58247 5.64489 2.56998 5.70473 2.56956 5.76526C2.56914 5.8258 2.58081 5.8858 2.60387 5.94177C2.62693 5.99774 2.66093 6.04854 2.70388 6.0912L7.98493 11.3118C8.07767 11.4035 8.20255 11.4553 8.33294 11.4562C8.46333 11.4571 8.58891 11.407 8.68291 11.3166L14.0356 6.17051C14.0794 6.12842 14.1144 6.07797 14.1384 6.02214C14.1624 5.96632 14.175 5.90624 14.1754 5.84547C14.1759 5.7847 14.1641 5.72446 14.1409 5.66831C14.1176 5.61215 14.0834 5.56123 14.0401 5.51853C13.9514 5.43069 13.8319 5.38103 13.7071 5.38017C13.5822 5.37931 13.462 5.42731 13.3721 5.51391L13.3721 5.51491Z" fill="#535353"/>
</svg>
