<svg width="17" height="17" viewBox="0 0 17 17" fill="none" xmlns="http://www.w3.org/2000/svg">
<path d="M13.3721 6.01487L8.34057 10.8522L3.37635 5.94579C3.28766 5.85795 3.16813 5.80829 3.0433 5.80743C2.91848 5.80657 2.79827 5.85457 2.70837 5.94117C2.66484 5.98323 2.63014 6.03356 2.60631 6.0892C2.58247 6.14485 2.56998 6.20469 2.56956 6.26522C2.56914 6.32575 2.58081 6.38576 2.60387 6.44172C2.62693 6.49769 2.66093 6.54849 2.70388 6.59115L7.98493 11.8118C8.07767 11.9034 8.20255 11.9552 8.33294 11.9561C8.46333 11.957 8.58891 11.907 8.68291 11.8166L14.0356 6.67047C14.0794 6.62837 14.1144 6.57792 14.1384 6.5221C14.1624 6.46627 14.175 6.4062 14.1754 6.34543C14.1759 6.28465 14.1641 6.22441 14.1409 6.16826C14.1176 6.11211 14.0834 6.06118 14.0401 6.01848C13.9514 5.93065 13.8319 5.88099 13.7071 5.88013C13.5822 5.87926 13.462 5.92726 13.3721 6.01387L13.3721 6.01487Z" fill="#535353"/>
</svg>
