<svg width="16" height="17" viewBox="0 0 16 17" fill="none" xmlns="http://www.w3.org/2000/svg">
<path d="M10.674 13.4977L5.80198 8.49971L10.674 3.50171C10.7612 3.41241 10.81 3.29254 10.81 3.16771C10.81 3.04288 10.7612 2.92301 10.674 2.83371C10.6316 2.79047 10.5811 2.75612 10.5252 2.73267C10.4694 2.70922 10.4095 2.69714 10.349 2.69714C10.2884 2.69714 10.2285 2.70922 10.1727 2.73267C10.1169 2.75612 10.0663 2.79047 10.024 2.83371L4.83998 8.15071C4.74897 8.24408 4.69803 8.36932 4.69803 8.49971C4.69803 8.6301 4.74897 8.75534 4.83998 8.84871L10.023 14.1657C10.0654 14.2093 10.1161 14.2439 10.1721 14.2675C10.2281 14.2911 10.2882 14.3033 10.349 14.3033C10.4098 14.3033 10.4699 14.2911 10.5259 14.2675C10.5819 14.2439 10.6326 14.2093 10.675 14.1657C10.7622 14.0764 10.811 13.9565 10.811 13.8317C10.811 13.7069 10.7622 13.587 10.675 13.4977L10.674 13.4977Z" fill="#222222"/>
</svg>
