<svg width="18" height="19" viewBox="0 0 18 19" fill="none" xmlns="http://www.w3.org/2000/svg">
<path d="M13.5 4.15625V5H14.0625C14.8084 5 15.5238 5.29632 16.0512 5.82376C16.5787 6.35121 16.875 7.06658 16.875 7.8125V12.0312C16.875 12.5534 16.6676 13.0542 16.2984 13.4234C15.9292 13.7926 15.4284 14 14.9062 14H14.0625V14.8438C14.0625 15.3659 13.8551 15.8667 13.4859 16.2359C13.1167 16.6051 12.6159 16.8125 12.0938 16.8125H5.90625C5.38411 16.8125 4.88335 16.6051 4.51413 16.2359C4.14492 15.8667 3.9375 15.3659 3.9375 14.8438V14H3.09375C2.57161 14 2.07085 13.7926 1.70163 13.4234C1.33242 13.0542 1.125 12.5534 1.125 12.0312V7.8125C1.125 7.06658 1.42132 6.35121 1.94876 5.82376C2.47621 5.29632 3.19158 5 3.9375 5H4.5V4.15625C4.5 3.63411 4.70742 3.13335 5.07663 2.76413C5.44585 2.39492 5.94661 2.1875 6.46875 2.1875H11.5312C12.0534 2.1875 12.5542 2.39492 12.9234 2.76413C13.2926 3.13335 13.5 3.63411 13.5 4.15625ZM5.625 4.15625V5H12.375V4.15625C12.375 3.93247 12.2861 3.71786 12.1279 3.55963C11.9696 3.40139 11.755 3.3125 11.5312 3.3125H6.46875C6.24497 3.3125 6.03036 3.40139 5.87213 3.55963C5.71389 3.71786 5.625 3.93247 5.625 4.15625ZM5.0625 14.8438C5.0625 15.0675 5.15139 15.2821 5.30963 15.4404C5.46786 15.5986 5.68247 15.6875 5.90625 15.6875H12.0938C12.3175 15.6875 12.5321 15.5986 12.6904 15.4404C12.8486 15.2821 12.9375 15.0675 12.9375 14.8438V11.4688C12.9375 11.245 12.8486 11.0304 12.6904 10.8721C12.5321 10.7139 12.3175 10.625 12.0938 10.625H5.90625C5.68247 10.625 5.46786 10.7139 5.30963 10.8721C5.15139 11.0304 5.0625 11.245 5.0625 11.4688V14.8438ZM14.0625 12.875H14.9062C15.13 12.875 15.3446 12.7861 15.5029 12.6279C15.6611 12.4696 15.75 12.255 15.75 12.0312V7.8125C15.75 7.36495 15.5722 6.93572 15.2557 6.61926C14.9393 6.30279 14.5101 6.125 14.0625 6.125H3.9375C3.48995 6.125 3.06072 6.30279 2.74426 6.61926C2.42779 6.93572 2.25 7.36495 2.25 7.8125V12.0312C2.25 12.255 2.33889 12.4696 2.49713 12.6279C2.65536 12.7861 2.86997 12.875 3.09375 12.875H3.9375V11.4688C3.9375 10.9466 4.14492 10.4458 4.51413 10.0766C4.88335 9.70742 5.38411 9.5 5.90625 9.5H12.0938C12.6159 9.5 13.1167 9.70742 13.4859 10.0766C13.8551 10.4458 14.0625 10.9466 14.0625 11.4688V12.875Z" fill="#10AB4E"/>
</svg>
