<svg width="19" height="19" viewBox="0 0 19 19" fill="none" xmlns="http://www.w3.org/2000/svg">
<path d="M13.8922 4.50066L13.8864 5.34439L14.4489 5.34828C15.1948 5.35343 15.9081 5.65468 16.4319 6.18576C16.9557 6.71684 17.247 7.43424 17.2419 8.18015L17.2127 12.3988C17.2091 12.9209 16.9982 13.4202 16.6265 13.7869C16.2547 14.1535 15.7525 14.3575 15.2304 14.3539L14.3867 14.3481L14.3809 15.1918C14.3772 15.7139 14.1664 16.2132 13.7946 16.5799C13.4229 16.9465 12.9207 17.1505 12.3985 17.1469L6.21119 17.1041C5.68906 17.1005 5.18975 16.8896 4.82309 16.5179C4.45644 16.1461 4.25249 15.644 4.2561 15.1218L4.26193 14.2781L3.4182 14.2723C2.89606 14.2686 2.39675 14.0578 2.0301 13.686C1.66345 13.3143 1.45949 12.8121 1.4631 12.2899L1.49225 8.0713C1.49741 7.3254 1.79866 6.61209 2.32974 6.0883C2.86082 5.56451 3.57822 5.27315 4.32412 5.2783L4.88661 5.28219L4.89244 4.43846C4.89605 3.91633 5.10693 3.41701 5.47868 3.05036C5.85044 2.68371 6.35262 2.47976 6.87475 2.48336L11.9371 2.51835C12.4593 2.52196 12.9586 2.73284 13.3252 3.10459C13.6919 3.47635 13.8958 3.97853 13.8922 4.50066ZM6.01741 4.44624L6.01158 5.28997L12.7614 5.33661L12.7673 4.49288C12.7688 4.26911 12.6814 4.05389 12.5243 3.89457C12.3671 3.73525 12.1531 3.64487 11.9294 3.64332L6.86698 3.60834C6.6432 3.60679 6.42798 3.6942 6.26866 3.85134C6.10934 4.00847 6.01896 4.22246 6.01741 4.44624ZM5.38107 15.1296C5.37952 15.3534 5.46693 15.5686 5.62407 15.7279C5.7812 15.8872 5.9952 15.9776 6.21897 15.9792L12.4063 16.0219C12.6301 16.0235 12.8453 15.9361 13.0046 15.7789C13.164 15.6218 13.2543 15.4078 13.2559 15.184L13.2792 11.8091C13.2808 11.5853 13.1933 11.3701 13.0362 11.2108C12.8791 11.0515 12.6651 10.9611 12.4413 10.9595L6.25395 10.9168C6.03018 10.9152 5.81496 11.0026 5.65564 11.1598C5.49632 11.3169 5.40594 11.5309 5.40439 11.7547L5.38107 15.1296ZM14.3945 13.2231L15.2382 13.2289C15.462 13.2305 15.6772 13.1431 15.8365 12.9859C15.9958 12.8288 16.0862 12.6148 16.0877 12.391L16.1169 8.17237C16.12 7.72483 15.9452 7.29439 15.6309 6.97574C15.3166 6.65709 14.8886 6.47634 14.4411 6.47325L4.31635 6.40328C3.86881 6.40018 3.43837 6.575 3.11972 6.88928C2.80107 7.20355 2.62032 7.63153 2.61723 8.07907L2.58807 12.2977C2.58653 12.5215 2.67394 12.7367 2.83107 12.896C2.98821 13.0554 3.2022 13.1457 3.42597 13.1473L4.2697 13.1531L4.27942 11.7469C4.28303 11.2248 4.49391 10.7255 4.86566 10.3588C5.23742 9.99215 5.7396 9.78819 6.26173 9.7918L12.4491 9.83456C12.9712 9.83817 13.4705 10.049 13.8372 10.4208C14.2038 10.7926 14.4078 11.2947 14.4042 11.8169L14.3945 13.2231Z" fill="#535353"/>
</svg>
