<svg width="19" height="21" viewBox="0 0 19 21" fill="none" xmlns="http://www.w3.org/2000/svg">
<path d="M9.49992 20.2006C10.7023 20.2006 11.7016 19.3339 11.909 18.1914H7.09082C7.29825 19.3339 8.29753 20.2006 9.49992 20.2006Z" fill="#3D5653"/>
<path d="M17.5323 14.1561C16.6808 13.3046 15.6232 12.8955 15.6232 8.75771C15.6232 5.71925 13.41 3.19816 10.5078 2.71744H10.3493C10.5343 2.51377 10.647 2.24331 10.647 1.94648C10.647 1.31291 10.1335 0.799316 9.49988 0.799316C8.86631 0.799316 8.35272 1.31291 8.35272 1.94648C8.35272 2.24327 8.46546 2.51377 8.65042 2.71744H8.49194C5.5898 3.19816 3.37657 5.71925 3.37657 8.75771C3.37657 12.8955 2.31865 13.3046 1.46713 14.1561C0.313303 15.31 1.13103 17.2921 2.76607 17.2921H16.2333C17.8651 17.2921 18.6884 15.3123 17.5323 14.1561Z" fill="#3D5653"/>
</svg>
