<svg width="18" height="19" viewBox="0 0 18 19" fill="none" xmlns="http://www.w3.org/2000/svg">
<g clip-path="url(#clip0_445_2594)">
<path d="M6.16422 3.35276L10.1027 5.62691C10.2119 5.68935 10.3508 5.65167 10.4138 5.54348L10.5274 5.34648C10.5903 5.23829 10.5527 5.09888 10.4445 5.0359L6.50547 2.76175C6.39674 2.69877 6.25733 2.73645 6.1949 2.84464L6.08132 3.04164C6.01835 3.15037 6.05549 3.28978 6.16422 3.35276Z" fill="#E8E8E8"/>
<path d="M2.7532 9.26154L6.69219 11.5362C6.80092 11.5987 6.94033 11.5615 7.00277 11.4533L7.11634 11.2569C7.17932 11.1487 7.14218 11.0087 7.03345 10.9463L3.09445 8.67215C2.98572 8.60917 2.84631 8.64685 2.78388 8.75504L2.6703 8.95204C2.60679 9.05916 2.64393 9.19857 2.7532 9.26154Z" fill="#E8E8E8"/>
<path d="M8.32669 7.70428L8.06503 8.15743L8.06558 8.15772L7.94511 8.36625L7.02132 9.96531L3.9481 8.19146L6.17731 4.33062L9.25038 6.10458L8.32669 7.70428ZM15.8777 12.8202L10.8237 9.58725L16.1504 12.3481L15.8777 12.8202ZM3.71204 8.0552C3.71218 8.05528 3.71232 8.05536 3.71245 8.05544L3.71207 8.05522L3.71204 8.0552Z" stroke="#E8E8E8"/>
<path d="M17.8865 12.6156L17.493 12.3885C17.3853 12.3255 17.2448 12.3632 17.1824 12.4713L16.4994 13.6528C16.4375 13.761 16.4746 13.901 16.5828 13.9629L16.9763 14.19C17.0844 14.253 17.2239 14.2159 17.2868 14.1071L17.9693 12.9256C18.0323 12.8175 17.9952 12.6775 17.8865 12.6156Z" fill="#E8E8E8"/>
<path d="M9.37544 14.0177H8.90123C8.96098 13.951 9.00081 13.8649 9.00081 13.768V13.3934C9.00081 13.1872 8.83233 13.0182 8.62618 13.0182H1.12497C0.918274 13.0182 0.749798 13.1872 0.749798 13.3934V13.768C0.749798 13.8649 0.789629 13.951 0.849915 14.0177H0.375168C0.167938 14.0177 0 14.1873 0 14.3934V15.8936C0 16.0997 0.168476 16.2687 0.375168 16.2687H9.37651C9.58374 16.2687 9.75114 16.0997 9.75114 15.8936V14.3924C9.75114 14.1873 9.58267 14.0177 9.37544 14.0177ZM8.84202 15.7515H0.943034C0.726115 15.7515 0.548488 15.5739 0.548488 15.3575V14.9624C0.549027 14.746 0.726115 14.5673 0.943034 14.5684H8.84202C9.06001 14.5684 9.23764 14.746 9.2371 14.9619L9.23764 15.3575C9.2371 15.5739 9.06001 15.7515 8.84202 15.7515Z" fill="#E8E8E8"/>
</g>
<defs>
<clipPath id="clip0_445_2594">
<rect width="18" height="18" fill="white" transform="translate(0 0.5)"/>
</clipPath>
</defs>
</svg>
