<svg width="20" height="17" viewBox="0 0 20 17" fill="none" xmlns="http://www.w3.org/2000/svg">
<path fill-rule="evenodd" clip-rule="evenodd" d="M12.8049 0.750001H6.69513C5.32754 0.749981 4.22521 0.74996 3.35825 0.86652C2.45814 0.98754 1.70027 1.24643 1.09835 1.84835C0.496431 2.45027 0.23754 3.20814 0.11652 4.10825C-3.95477e-05 4.97521 -1.9476e-05 6.07753 5.23953e-07 7.44511V9.5549C-1.9476e-05 10.9225 -3.95477e-05 12.0248 0.11652 12.8918C0.23754 13.7919 0.496431 14.5497 1.09835 15.1517C1.70027 15.7536 2.45814 16.0125 3.35825 16.1335C4.22521 16.25 5.32753 16.25 6.69511 16.25H12.8049C14.1725 16.25 15.2748 16.25 16.1418 16.1335C17.0419 16.0125 17.7997 15.7536 18.4017 15.1517C19.0036 14.5497 19.2625 13.7919 19.3835 12.8918C19.5 12.0248 19.5 10.9225 19.5 9.5549V7.44513C19.5 6.07754 19.5 4.97522 19.3835 4.10825C19.2625 3.20814 19.0036 2.45027 18.4017 1.84835C17.7997 1.24643 17.0419 0.98754 16.1418 0.86652C15.2748 0.74996 14.1725 0.749981 12.8049 0.750001ZM4.08541 4.82918C3.71493 4.64394 3.26442 4.79411 3.07918 5.16459C2.89394 5.53507 3.04411 5.98558 3.41459 6.17082L8.5202 8.7236C9.2944 9.1107 10.2056 9.1107 10.9798 8.7236L16.0854 6.17082C16.4559 5.98558 16.6061 5.53507 16.4208 5.16459C16.2356 4.79411 15.7851 4.64394 15.4146 4.82918L10.309 7.38197C9.9571 7.5579 9.5429 7.5579 9.191 7.38197L4.08541 4.82918Z" fill="#3D5653"/>
</svg>
