<svg width="18" height="20" viewBox="0 0 18 20" fill="none" xmlns="http://www.w3.org/2000/svg">
<path d="M15.4687 14.5445V2.49997C15.4687 2.29372 15.3 2.12497 15.0937 2.12497H11.1094V0.512466C11.1094 0.371841 10.9453 0.292154 10.8352 0.378873L7.84453 2.74137C7.82429 2.75701 7.80791 2.77707 7.79664 2.80003C7.78536 2.82299 7.7795 2.84822 7.7795 2.87379C7.7795 2.89937 7.78536 2.9246 7.79664 2.94756C7.80791 2.97051 7.82429 2.99058 7.84453 3.00622L10.8328 5.36872C10.943 5.45543 11.107 5.37809 11.107 5.23512V3.62497H13.7789V14.5445C12.743 14.8961 11.9977 15.8781 11.9977 17.0312C11.9977 18.4797 13.1742 19.6562 14.6227 19.6562C16.0711 19.6562 17.2477 18.4797 17.2477 17.0312C17.25 15.8781 16.5047 14.8984 15.4687 14.5445ZM14.625 18.1562C14.3306 18.1502 14.0503 18.029 13.8442 17.8187C13.6381 17.6084 13.5227 17.3257 13.5227 17.0312C13.5227 16.7368 13.6381 16.454 13.8442 16.2437C14.0503 16.0334 14.3306 15.9122 14.625 15.9062C14.9194 15.9122 15.1997 16.0334 15.4058 16.2437C15.6118 16.454 15.7273 16.7368 15.7273 17.0312C15.7273 17.3257 15.6118 17.6084 15.4058 17.8187C15.1997 18.029 14.9194 18.1502 14.625 18.1562ZM6 2.96872C6 1.52028 4.82344 0.343716 3.375 0.343716C1.92656 0.343716 0.75 1.52028 0.75 2.96872C0.75 4.12184 1.49531 5.10153 2.53125 5.45543V14.5468C1.49531 14.8984 0.75 15.8804 0.75 17.0336C0.75 18.482 1.92656 19.6586 3.375 19.6586C4.82344 19.6586 6 18.482 6 17.0336C6 15.8804 5.25469 14.9007 4.21875 14.5468V5.45543C5.25469 5.10153 6 4.12184 6 2.96872ZM2.25 2.96872C2.25601 2.67432 2.37718 2.39402 2.5875 2.18794C2.79782 1.98187 3.08055 1.86645 3.375 1.86645C3.66945 1.86645 3.95218 1.98187 4.1625 2.18794C4.37282 2.39402 4.49399 2.67432 4.5 2.96872C4.49399 3.26311 4.37282 3.54342 4.1625 3.74949C3.95218 3.95556 3.66945 4.07099 3.375 4.07099C3.08055 4.07099 2.79782 3.95556 2.5875 3.74949C2.37718 3.54342 2.25601 3.26311 2.25 2.96872ZM4.5 17.0312C4.49399 17.3256 4.37282 17.6059 4.1625 17.812C3.95218 18.0181 3.66945 18.1335 3.375 18.1335C3.08055 18.1335 2.79782 18.0181 2.5875 17.812C2.37718 17.6059 2.25601 17.3256 2.25 17.0312C2.25601 16.7368 2.37718 16.4565 2.5875 16.2504C2.79782 16.0444 3.08055 15.9289 3.375 15.9289C3.66945 15.9289 3.95218 16.0444 4.1625 16.2504C4.37282 16.4565 4.49399 16.7368 4.5 17.0312Z" fill="#DFEEFF"/>
</svg>
