<svg width="17" height="16" viewBox="0 0 17 16" fill="none" xmlns="http://www.w3.org/2000/svg">
<path d="M12.8922 3.00051L12.8864 3.84424L13.4489 3.84813C14.1948 3.85329 14.9081 4.15454 15.4319 4.68562C15.9557 5.2167 16.247 5.9341 16.2419 6.68L16.2127 10.8986C16.2091 11.4208 15.9982 11.9201 15.6265 12.2867C15.2547 12.6534 14.7525 12.8574 14.2304 12.8537L13.3867 12.8479L13.3809 13.6916C13.3772 14.2138 13.1664 14.7131 12.7946 15.0797C12.4229 15.4464 11.9207 15.6504 11.3985 15.6467L5.21119 15.604C4.68906 15.6004 4.18975 15.3895 3.82309 15.0177C3.45644 14.646 3.25249 14.1438 3.2561 13.6217L3.26193 12.7779L2.4182 12.7721C1.89606 12.7685 1.39675 12.5576 1.0301 12.1859C0.663447 11.8141 0.459491 11.3119 0.4631 10.7898L0.492255 6.57115C0.497409 5.82525 0.798662 5.11195 1.32974 4.58816C1.86082 4.06437 2.57822 3.773 3.32412 3.77816L3.88661 3.78205L3.89244 2.93832C3.89605 2.41618 4.10693 1.91687 4.47868 1.55022C4.85044 1.18357 5.35262 0.97961 5.87475 0.983219L10.9371 1.0182C11.4593 1.02181 11.9586 1.23269 12.3252 1.60445C12.6919 1.9762 12.8958 2.47838 12.8922 3.00051V3.00051ZM5.01741 2.94609L5.01158 3.78982L11.7614 3.83647L11.7673 2.99274C11.7688 2.76897 11.6814 2.55375 11.5243 2.39442C11.3671 2.2351 11.1531 2.14472 10.9294 2.14318L5.86698 2.10819C5.6432 2.10665 5.42798 2.19405 5.26866 2.35119C5.10934 2.50833 5.01896 2.72232 5.01741 2.94609V2.94609ZM4.38107 13.6294C4.37952 13.8532 4.46693 14.0684 4.62407 14.2278C4.7812 14.3871 4.9952 14.4775 5.21897 14.479L11.4063 14.5218C11.6301 14.5233 11.8453 14.4359 12.0046 14.2788C12.164 14.1216 12.2543 13.9076 12.2559 13.6839L12.2792 10.309C12.2808 10.0852 12.1933 9.86996 12.0362 9.71064C11.8791 9.55131 11.6651 9.46094 11.4413 9.45939L5.25395 9.41663C5.03018 9.41508 4.81496 9.50249 4.65564 9.65963C4.49631 9.81677 4.40594 10.0308 4.40439 10.2545L4.38107 13.6294ZM13.3945 11.7229L14.2382 11.7288C14.462 11.7303 14.6772 11.6429 14.8365 11.4858C14.9958 11.3286 15.0862 11.1146 15.0877 10.8909L15.1169 6.67223C15.12 6.22468 14.9452 5.79424 14.6309 5.4756C14.3166 5.15695 13.8886 4.9762 13.4411 4.9731L3.31635 4.90313C2.86881 4.90004 2.43837 5.07486 2.11972 5.38913C1.80107 5.7034 1.62032 6.13139 1.61723 6.57893L1.58807 10.7976C1.58653 11.0213 1.67394 11.2366 1.83107 11.3959C1.98821 11.5552 2.2022 11.6456 2.42597 11.6471L3.2697 11.653L3.27942 10.2468C3.28303 9.72462 3.49391 9.22531 3.86566 8.85866C4.23742 8.492 4.7396 8.28805 5.26173 8.29166L11.4491 8.33442C11.9712 8.33803 12.4705 8.5489 12.8372 8.92066C13.2038 9.29241 13.4078 9.79459 13.4042 10.3167L13.3945 11.7229Z" fill="#535353"/>
</svg>
