<svg width="17" height="16" viewBox="0 0 17 16" fill="none" xmlns="http://www.w3.org/2000/svg">
<path d="M12.8922 2.50066L12.8864 3.34439L13.4489 3.34828C14.1948 3.35343 14.9081 3.65468 15.4319 4.18576C15.9557 4.71684 16.247 5.43424 16.2419 6.18015L16.2127 10.3988C16.2091 10.9209 15.9982 11.4202 15.6265 11.7869C15.2547 12.1535 14.7525 12.3575 14.2304 12.3539L13.3867 12.3481L13.3809 13.1918C13.3772 13.7139 13.1664 14.2132 12.7946 14.5799C12.4229 14.9465 11.9207 15.1505 11.3985 15.1469L5.21119 15.1041C4.68906 15.1005 4.18975 14.8896 3.82309 14.5179C3.45644 14.1461 3.25249 13.644 3.2561 13.1218L3.26193 12.2781L2.4182 12.2723C1.89606 12.2686 1.39675 12.0578 1.0301 11.686C0.663447 11.3143 0.459491 10.8121 0.4631 10.2899L0.492255 6.0713C0.497409 5.3254 0.798662 4.61209 1.32974 4.0883C1.86082 3.56451 2.57822 3.27315 3.32412 3.2783L3.88661 3.28219L3.89244 2.43846C3.89605 1.91633 4.10693 1.41701 4.47868 1.05036C4.85044 0.683711 5.35262 0.479755 5.87475 0.483364L10.9371 0.51835C11.4593 0.521958 11.9586 0.732835 12.3252 1.10459C12.6919 1.47635 12.8958 1.97853 12.8922 2.50066V2.50066ZM5.01741 2.44624L5.01158 3.28997L11.7614 3.33661L11.7673 2.49288C11.7688 2.26911 11.6814 2.05389 11.5243 1.89457C11.3671 1.73525 11.1531 1.64487 10.9294 1.64332L5.86698 1.60834C5.6432 1.60679 5.42798 1.6942 5.26866 1.85134C5.10934 2.00847 5.01896 2.22246 5.01741 2.44624V2.44624ZM4.38107 13.1296C4.37952 13.3534 4.46693 13.5686 4.62407 13.7279C4.7812 13.8872 4.9952 13.9776 5.21897 13.9792L11.4063 14.0219C11.6301 14.0235 11.8453 13.9361 12.0046 13.7789C12.164 13.6218 12.2543 13.4078 12.2559 13.184L12.2792 9.8091C12.2808 9.58533 12.1933 9.37011 12.0362 9.21078C11.8791 9.05146 11.6651 8.96108 11.4413 8.95954L5.25395 8.91677C5.03018 8.91523 4.81496 9.00264 4.65564 9.15977C4.49631 9.31691 4.40594 9.5309 4.40439 9.75467L4.38107 13.1296ZM13.3945 11.2231L14.2382 11.2289C14.462 11.2305 14.6772 11.1431 14.8365 10.9859C14.9958 10.8288 15.0862 10.6148 15.0877 10.391L15.1169 6.17237C15.12 5.72483 14.9452 5.29439 14.6309 4.97574C14.3166 4.65709 13.8886 4.47634 13.4411 4.47325L3.31635 4.40328C2.86881 4.40018 2.43837 4.575 2.11972 4.88928C1.80107 5.20355 1.62032 5.63153 1.61723 6.07907L1.58807 10.2977C1.58653 10.5215 1.67394 10.7367 1.83107 10.896C1.98821 11.0554 2.2022 11.1457 2.42597 11.1473L3.2697 11.1531L3.27942 9.7469C3.28303 9.22477 3.49391 8.72545 3.86566 8.3588C4.23742 7.99215 4.7396 7.78819 5.26173 7.7918L11.4491 7.83456C11.9712 7.83817 12.4705 8.04905 12.8372 8.4208C13.2038 8.79256 13.4078 9.29474 13.4042 9.81687L13.3945 11.2231Z" fill="#535353"/>
</svg>
