<svg width="18" height="20" viewBox="0 0 18 20" fill="none" xmlns="http://www.w3.org/2000/svg">
<path d="M15.4687 14.5446V2.50003C15.4687 2.29378 15.3 2.12503 15.0937 2.12503H11.1094V0.512527C11.1094 0.371902 10.9453 0.292215 10.8352 0.378934L7.84453 2.74143C7.82429 2.75707 7.80791 2.77714 7.79664 2.80009C7.78536 2.82305 7.7795 2.84828 7.7795 2.87386C7.7795 2.89943 7.78536 2.92466 7.79664 2.94762C7.80791 2.97057 7.82429 2.99064 7.84453 3.00628L10.8328 5.36878C10.943 5.4555 11.107 5.37815 11.107 5.23518V3.62503H13.7789V14.5446C12.743 14.8961 11.9977 15.8781 11.9977 17.0313C11.9977 18.4797 13.1742 19.6563 14.6227 19.6563C16.0711 19.6563 17.2477 18.4797 17.2477 17.0313C17.25 15.8781 16.5047 14.8985 15.4687 14.5446ZM14.625 18.1563C14.3306 18.1503 14.0503 18.0291 13.8442 17.8188C13.6381 17.6085 13.5227 17.3257 13.5227 17.0313C13.5227 16.7368 13.6381 16.4541 13.8442 16.2438C14.0503 16.0335 14.3306 15.9123 14.625 15.9063C14.9194 15.9123 15.1997 16.0335 15.4058 16.2438C15.6118 16.4541 15.7273 16.7368 15.7273 17.0313C15.7273 17.3257 15.6118 17.6085 15.4058 17.8188C15.1997 18.0291 14.9194 18.1503 14.625 18.1563ZM6 2.96878C6 1.52034 4.82344 0.343777 3.375 0.343777C1.92656 0.343777 0.75 1.52034 0.75 2.96878C0.75 4.1219 1.49531 5.10159 2.53125 5.4555V14.5469C1.49531 14.8985 0.75 15.8805 0.75 17.0336C0.75 18.4821 1.92656 19.6586 3.375 19.6586C4.82344 19.6586 6 18.4821 6 17.0336C6 15.8805 5.25469 14.9008 4.21875 14.5469V5.4555C5.25469 5.10159 6 4.1219 6 2.96878ZM2.25 2.96878C2.25601 2.67438 2.37718 2.39408 2.5875 2.188C2.79782 1.98193 3.08055 1.86651 3.375 1.86651C3.66945 1.86651 3.95218 1.98193 4.1625 2.188C4.37282 2.39408 4.49399 2.67438 4.5 2.96878C4.49399 3.26317 4.37282 3.54348 4.1625 3.74955C3.95218 3.95563 3.66945 4.07105 3.375 4.07105C3.08055 4.07105 2.79782 3.95563 2.5875 3.74955C2.37718 3.54348 2.25601 3.26317 2.25 2.96878ZM4.5 17.0313C4.49399 17.3257 4.37282 17.606 4.1625 17.812C3.95218 18.0181 3.66945 18.1335 3.375 18.1335C3.08055 18.1335 2.79782 18.0181 2.5875 17.812C2.37718 17.606 2.25601 17.3257 2.25 17.0313C2.25601 16.7369 2.37718 16.4566 2.5875 16.2505C2.79782 16.0444 3.08055 15.929 3.375 15.929C3.66945 15.929 3.95218 16.0444 4.1625 16.2505C4.37282 16.4566 4.49399 16.7369 4.5 17.0313Z" fill="#DFEEFF"/>
</svg>
